# xmcd
#
# Track frame offsets:
#	150
#	20246
#	41474
#	62582
#	83352
#	101993
#	120320
#	141732
#	160304
#	181037
#	206505
#
# Disc length: 3048 seconds
#
# Revision: 10
# Processed by: cddbd v1.5.2PL0 Copyright (c) Steve Scherf et al.
# Submitted via: EasyCDDAExtractor 15.3.0.1
#
DISCID=910be60b
DTITLE=Olga Tañon - Yo Por Ti
DYEAR=2001
DGENRE=Latin
TTITLE0=Mienteme
TTITLE1=Pegaito
TTITLE2=Como Olvidar (Version Merengue)
TTITLE3=Me Gusta
TTITLE4=Tu Te Lo Pierdes
TTITLE5=Quiero Que Tu Me Quieras
TTITLE6=Yo Por Ti
TTITLE7=I Wanna Have Fun
TTITLE8=Ahora Soy Mala
TTITLE9=Prohibido El Paso
TTITLE10=Como Olvidar (Version Balada)
EXTD=
EXTT0=
EXTT1=
EXTT2=
EXTT3=
EXTT4=
EXTT5=
EXTT6=
EXTT7=
EXTT8=
EXTT9=
EXTT10=
PLAYORDER=
